<?xml version="1.0" encoding="UTF-8"?>
<svg id="Layer_1" data-name="Layer 1" xmlns="http://www.w3.org/2000/svg" viewBox="0 0 46.31 46.08">
  <defs>
    <style>
      .cls-1 {
        fill: none;
        stroke: #999;
        stroke-miterlimit: 10;
        stroke-width: 1.39px;
      }
    </style>
  </defs>
  <path class="cls-1" d="M38.66,25.03l3.33-.25-.49-6.49-3.29.25c-.49-1.82-1.29-3.51-2.32-5.02l2.26-2.39-4.66-4.49-2.24,2.37c-1.66-1.07-3.53-1.85-5.54-2.26v-3.26h-6.44v3.26c-2.53.51-4.85,1.61-6.8,3.16l-2.46-2.15-4.22,4.91,2.48,2.17c-1.03,1.85-1.72,3.93-1.97,6.13l-3.3.25.48,6.48,3.34-.26c.51,1.79,1.31,3.46,2.35,4.94l-2.33,2.47,4.66,4.49,2.35-2.49c1.64,1.04,3.47,1.79,5.44,2.19v3.45h6.44v-3.45c2.48-.5,4.75-1.57,6.69-3.07l2.56,2.25,4.22-4.91-2.54-2.23c1.04-1.83,1.74-3.88,2.02-6.07ZM22.49,29.9c-3.77,0-6.82-3.09-6.82-6.89s3.05-6.89,6.82-6.89,6.82,3.09,6.82,6.89-3.05,6.89-6.82,6.89Z"/>
</svg>