<?xml version="1.0" encoding="UTF-8"?>
<svg id="Layer_1" data-name="Layer 1" xmlns="http://www.w3.org/2000/svg" viewBox="0 0 99.95 97.69">
  <defs>
    <style>
      .cls-1 {
        fill: #edf0f7;
      }

      .cls-2 {
        fill: none;
        stroke: #999;
        stroke-miterlimit: 10;
        stroke-width: 1.33px;
      }
    </style>
  </defs>
  <rect class="cls-1" width="99.95" height="97.69" rx="10.84" ry="10.84"/>
  <g>
    <path class="cls-2" d="M59.14,66.15v-2.22c.26-3.11.05-4.51,1.87-5.44,6.05-3.72,10.09-10.39,10.09-18.01,0-11.66-9.46-21.12-21.12-21.12s-21.12,9.46-21.12,21.12c0,7.62,4.04,14.3,10.09,18.01,2.09,1.56,1.61,2.34,1.87,5.44v2.22h18.32Z"/>
    <rect class="cls-2" x="40.82" y="66.15" width="18.32" height="7.49"/>
    <line class="cls-2" x1="40.82" y1="68.77" x2="59.14" y2="68.77"/>
    <line class="cls-2" x1="40.82" y1="71.22" x2="59.14" y2="71.22"/>
    <path class="cls-2" d="M44.56,73.65c.39,2.65,2.67,4.69,5.42,4.69s5.04-2.04,5.42-4.69h-10.85Z"/>
    <path class="cls-2" d="M64.7,42.73l.13-4.08-2.48-.08c-.15-.85-.38-1.67-.69-2.45l2.27-1.24-1.97-3.58-2.41,1.32c-.52-.61-1.1-1.17-1.72-1.67l1.44-2.44-3.52-2.08-1.49,2.51c-.72-.26-1.47-.46-2.25-.59v-2.95h-4.08v2.95c-.59.1-1.17.23-1.73.41l-1.37-2.59-3.61,1.92,1.33,2.51c-.58.42-1.12.9-1.62,1.42l-2.35-1.49-2.2,3.44,2.21,1.41c-.36.76-.64,1.55-.84,2.38l-2.51-.08-.13,4.08,2.33.07c.08.91.25,1.79.51,2.64l-1.94,1.06,1.96,3.58,1.8-.99c.55.77,1.19,1.47,1.9,2.09l-1,1.69,3.52,2.08.95-1.6c.88.37,1.82.64,2.79.79v1.83h4.08v-1.83c.77-.12,1.51-.32,2.23-.58l.87,1.64,3.61-1.92-.91-1.72c.67-.54,1.29-1.14,1.84-1.81l1.7,1.09,2.19-3.45-1.83-1.17c.32-.83.55-1.71.69-2.61l2.29.08Z"/>
    <path class="cls-2" d="M49.98,31.28c-4.93,0-8.93,4-8.93,8.93s4,8.93,8.93,8.93,8.93-4,8.93-8.93-4-8.93-8.93-8.93ZM49.98,46.32c-3.38,0-6.12-2.74-6.12-6.12s2.74-6.12,6.12-6.12,6.12,2.74,6.12,6.12-2.74,6.12-6.12,6.12Z"/>
  </g>
</svg>