<svg width="100" height="100" viewBox="0 0 100 100" fill="none" xmlns="http://www.w3.org/2000/svg">
<path d="M69.6868 29.2694V77.9195H19.9688V21.8018H62.5142L69.6868 29.2694Z" fill="white" stroke="#ED4C00" stroke-width="1.45447" stroke-linecap="round" stroke-linejoin="round"/>
<path d="M69.6867 29.2694L62.514 21.8018V29.2694H69.6867Z" stroke="#ED4C00" stroke-width="1.45447" stroke-linecap="round" stroke-linejoin="round"/>
<path d="M56.2829 38.8584H33.5308V61.6105H56.2829V38.8584Z" stroke="#ED4C00" stroke-width="1.45447" stroke-linecap="round" stroke-linejoin="round"/>
<path d="M35.6227 36.7607H31.1554V41.2281H35.6227V36.7607Z" fill="#FCDFCE" stroke="#ED4C00" stroke-width="1.18436" stroke-miterlimit="10"/>
<path d="M58.5208 36.6172H54.0535V41.0845H58.5208V36.6172Z" fill="#FCDFCE" stroke="#ED4C00" stroke-width="1.18436" stroke-miterlimit="10"/>
<path d="M49.4248 45.6934H40.3489V54.7734H49.4248V45.6934Z" stroke="#ED4C00" stroke-width="1.45447" stroke-linecap="round" stroke-linejoin="round"/>
<path d="M35.6084 58.6382H31.1411V63.1055H35.6084V58.6382Z" fill="#FCDFCE" stroke="#ED4C00" stroke-width="1.18436" stroke-miterlimit="10"/>
<path d="M58.5208 58.6382H54.0535V63.1055H58.5208V58.6382Z" fill="#FCDFCE" stroke="#ED4C00" stroke-width="1.18436" stroke-miterlimit="10"/>
<path d="M79.7508 30.0054H74.4108V70.3649H79.7508V30.0054Z" fill="#FCDFCE" stroke="#ED4C00" stroke-width="1.18436" stroke-miterlimit="10"/>
<path d="M79.7508 27.1724H74.4108V30.0065H79.7508V27.1724Z" stroke="#ED4C00" stroke-width="1.45447" stroke-linecap="round" stroke-linejoin="round"/>
<path d="M79.7549 27.1704V25.6286C79.7549 24.1534 78.5581 22.9565 77.0828 22.9565C75.6076 22.9565 74.4108 24.1534 74.4108 25.6286V27.1704H79.7508H79.7549Z" stroke="#ED4C00" stroke-width="1.45447" stroke-linecap="round" stroke-linejoin="round"/>
<path d="M74.4108 70.3696H79.7549L77.0828 76.7652L74.4108 70.3696Z" stroke="#ED4C00" stroke-width="1.45447" stroke-linecap="round" stroke-linejoin="round"/>
<path d="M75.7567 73.6045L77.0741 76.7628L78.3955 73.6045H75.7567Z" stroke="#ED4C00" stroke-width="1.45447" stroke-linecap="round" stroke-linejoin="round"/>
<path d="M77.0856 30.0054V70.3649" stroke="#ED4C00" stroke-width="1.45447" stroke-linecap="round" stroke-linejoin="round"/>
</svg>
