<?xml version="1.0" encoding="utf-8"?>
<!-- Generator: Adobe Illustrator 26.5.0, SVG Export Plug-In . SVG Version: 6.00 Build 0)  -->
<svg version="1.1" id="Layer_1" xmlns="http://www.w3.org/2000/svg" xmlns:xlink="http://www.w3.org/1999/xlink" x="0px" y="0px"
	 viewBox="0 0 32 32" style="enable-background:new 0 0 32 32;" xml:space="preserve">
<style type="text/css">
	.st0{fill:#CC4F14;}
</style>
<path class="st0" d="M18.6,12.3h-5.3c-1.4,0-2.5-1.1-2.5-2.5c0-1.4,1.1-2.5,2.5-2.5h12.3V0H13.2C7.8,0,3.4,4.4,3.4,9.8
	c0,5.4,4.4,9.8,9.8,9.8h5.3c1.4,0,2.5,1.1,2.5,2.5c0,1.4-1.1,2.5-2.5,2.5H6.3V32h12.3c5.4,0,9.8-4.4,9.8-9.8
	C28.4,16.7,24,12.3,18.6,12.3L18.6,12.3z"/>
</svg>
